<svg width="95" height="95" viewBox="0 0 95 95" fill="none" xmlns="http://www.w3.org/2000/svg">
<g clip-path="url(#clip0)">
<path d="M13.8621 31.6816C10.5837 31.6816 7.92603 34.3393 7.92603 37.6178V65.3195C7.92603 68.5979 10.5837 71.2557 13.8621 71.2557C17.1405 71.2557 19.7982 68.5979 19.7982 65.3195V37.6178C19.7982 34.3393 17.1405 31.6816 13.8621 31.6816Z" fill="#4CAF50"/>
<path d="M81.1379 31.6816C77.8595 31.6816 75.2018 34.3393 75.2018 37.6178V65.3195C75.2018 68.5979 77.8595 71.2557 81.1379 71.2557C84.4163 71.2557 87.074 68.5979 87.074 65.3195V37.6178C87.074 34.3393 84.4165 31.6816 81.1379 31.6816Z" fill="#4CAF50"/>
<path d="M69.2657 31.6816H25.7344C24.6416 31.6816 23.7556 32.5676 23.7556 33.6604V65.3195C23.7547 70.0217 27.0633 74.0747 31.6705 75.0152V89.064C31.6705 92.3424 34.3282 95.0001 37.6066 95.0001C40.885 95.0001 43.5427 92.3424 43.5427 89.064V75.213H51.4576V89.064C51.4576 92.3424 54.1153 95.0001 57.3937 95.0001C60.6721 95.0001 63.3298 92.3424 63.3298 89.064V75.0152C67.937 74.0747 71.2456 70.0217 71.2447 65.3195V33.6604C71.2445 32.5676 70.3585 31.6816 69.2657 31.6816Z" fill="#4CAF50"/>
<path d="M61.8853 8.22207L66.7093 3.40195C67.4953 2.64268 67.517 1.39016 66.7579 0.603998C65.9987 -0.18198 64.7461 -0.203684 63.96 0.555396C63.9435 0.571349 63.9273 0.587488 63.9114 0.603998L58.2919 6.22364C51.4094 3.23388 43.5947 3.23388 36.7121 6.22364L31.0927 0.600102C30.3067 -0.159163 29.054 -0.137274 28.2947 0.648704C27.5542 1.41557 27.5542 2.63118 28.2947 3.39786L33.1149 8.22188C27.2387 12.11 23.7193 18.6993 23.7557 25.7453C23.7557 26.8381 24.6416 27.724 25.7344 27.724H69.2659C70.3587 27.724 71.2447 26.8381 71.2447 25.7453C71.2809 18.6995 67.7615 12.1102 61.8853 8.22207Z" fill="#4CAF50"/>
<path d="M37.6066 19.8093C38.6994 19.8093 39.5853 18.9234 39.5853 17.8306C39.5853 16.7377 38.6994 15.8518 37.6066 15.8518C36.5137 15.8518 35.6278 16.7377 35.6278 17.8306C35.6278 18.9234 36.5137 19.8093 37.6066 19.8093Z" fill="#FAFAFA"/>
<path d="M57.3934 19.8093C58.4863 19.8093 59.3722 18.9234 59.3722 17.8306C59.3722 16.7377 58.4863 15.8518 57.3934 15.8518C56.3006 15.8518 55.4147 16.7377 55.4147 17.8306C55.4147 18.9234 56.3006 19.8093 57.3934 19.8093Z" fill="#FAFAFA"/>
</g>
<defs>
<clipPath id="clip0">
<rect width="95" height="95" fill="white"/>
</clipPath>
</defs>
</svg>
