<svg width="97" height="97" viewBox="0 0 97 97" fill="none" xmlns="http://www.w3.org/2000/svg">
<path d="M63.9807 97H27.5321C26.3168 97 25.3315 96.0147 25.3315 94.7994V90.3916C25.3315 89.1763 26.3168 88.1911 27.5321 88.1911H63.9807C65.196 88.1911 66.1812 89.1763 66.1812 90.3916V94.7994C66.1812 96.0147 65.196 97 63.9807 97Z" fill="#B1ABB4"/>
<path d="M63.9807 88.1911H58.0869C59.3022 88.1911 60.2875 89.1763 60.2875 90.3916V94.7994C60.2875 96.0147 59.3022 97 58.0869 97H63.9807C65.196 97 66.1812 96.0147 66.1812 94.7994V90.3916C66.1812 89.1763 65.196 88.1911 63.9807 88.1911Z" fill="#A29AA5"/>
<path d="M61.6617 8.80886L60.0285 8.21948L56.1601 8.80886H35.3381C34.5819 8.80886 33.9688 8.1959 33.9688 7.43953V1.36932C33.9688 0.613151 34.5817 0 35.3381 0H61.6617C62.4179 0 63.031 0.612954 63.031 1.36932V7.43953C63.031 8.19571 62.4181 8.80886 61.6617 8.80886Z" fill="#94CEE8"/>
<path d="M32.5996 8.80886L26.2672 10.7735L20.8072 8.80886H6.27582C5.51964 8.80886 4.90649 8.1959 4.90649 7.43953V1.36932C4.90649 0.613151 5.51945 0 6.27582 0H32.5994C33.3556 0 33.9688 0.612954 33.9688 1.36932V7.43953C33.9688 8.19571 33.3558 8.80886 32.5996 8.80886Z" fill="#94CEE8"/>
<path d="M76.193 17.6175H61.6618L55.1052 19.5821L49.8693 17.6175C49.1132 17.6175 48.5 17.0046 48.5 16.2482V10.178C48.5 9.4218 49.113 8.80865 49.8693 8.80865H65.1869L69.7587 6.84406L76.193 8.80865C76.9491 8.80865 77.5623 9.42161 77.5623 10.178V16.2482C77.5623 17.0046 76.9491 17.6175 76.193 17.6175Z" fill="#94CEE8"/>
<path d="M58.2585 74.1486C59.0716 70.7089 56.9423 67.2613 53.5025 66.4482C50.0628 65.6351 46.6152 67.7644 45.8021 71.2042C44.989 74.6439 47.1183 78.0915 50.5581 78.9046C53.9978 79.7177 57.4454 77.5884 58.2585 74.1486Z" fill="#DA0B62"/>
<path d="M90.724 8.80886H64.4003C63.6442 8.80886 63.031 8.1959 63.031 7.43953V1.36932C63.031 0.613151 63.644 0 64.4003 0H90.724C91.4801 0 92.0933 0.612954 92.0933 1.36932V7.43953C92.0933 8.19571 91.4801 8.80886 90.724 8.80886Z" fill="#94CEE8"/>
<path d="M61.6616 0H55.7678C56.524 0 57.1371 0.613151 57.1371 1.36932V7.43953C57.1371 8.19571 56.5242 8.80886 55.7678 8.80886H61.6616C62.4178 8.80886 63.0309 8.19571 63.0309 7.43953V1.36932C63.0309 0.613151 62.418 0 61.6616 0V0Z" fill="#7FBFDB"/>
<path d="M32.5996 0H26.7058C27.462 0 28.0751 0.613151 28.0751 1.36932V7.43953C28.0751 8.19571 27.4622 8.80886 26.7058 8.80886L29.5786 10.7735L32.5996 8.80886C33.3558 8.80886 33.9689 8.19571 33.9689 7.43953V1.36932C33.9687 0.613151 33.3558 0 32.5996 0V0Z" fill="#7FBFDB"/>
<path d="M47.1307 17.6175L40.6568 19.5821L36.085 17.6175H20.8071C20.0509 17.6175 19.4377 17.0046 19.4377 16.2482V10.178C19.4377 9.42181 20.0507 8.80865 20.8071 8.80865H47.1307C47.8869 8.80865 48.5 9.42161 48.5 10.178V16.2482C48.5 17.0046 47.8871 17.6175 47.1307 17.6175Z" fill="#94CEE8"/>
<path d="M47.1308 8.8089H41.2371C41.9932 8.8089 42.6064 9.42185 42.6064 10.1782V16.2486C42.6064 17.0048 41.9934 17.6178 41.2371 17.6178H47.1308C47.887 17.6178 48.5002 17.0048 48.5002 16.2486V10.1782C48.5 9.42185 47.887 8.8089 47.1308 8.8089Z" fill="#7FBFDB"/>
<path d="M76.1928 8.8089H70.299C70.3582 8.8089 70.4163 8.81263 70.4733 8.8199C71.1471 8.90556 71.6682 9.48099 71.6682 10.1782V16.2486C71.6682 17.0048 71.0552 17.6178 70.2988 17.6178H76.1926C76.9488 17.6178 77.5619 17.0048 77.5619 16.2486V10.1782C77.5621 9.42185 76.949 8.8089 76.1928 8.8089Z" fill="#7FBFDB"/>
<path d="M90.7241 0H84.8303C85.5865 0 86.1996 0.613151 86.1996 1.36932V7.43953C86.1996 8.19571 85.5867 8.80886 84.8303 8.80886H90.7241C91.4803 8.80886 92.0934 8.19571 92.0934 7.43953V1.36932C92.0934 0.613151 91.4803 0 90.7241 0V0Z" fill="#7FBFDB"/>
<path d="M61.6617 26.4378H35.3381C34.5819 26.4378 33.9688 25.8248 33.9688 25.0684V18.9982C33.9688 18.2421 34.5817 17.6289 35.3381 17.6289H61.6617C62.4179 17.6289 63.031 18.2419 63.031 18.9982V25.0684C63.031 25.8248 62.4181 26.4378 61.6617 26.4378Z" fill="#94CEE8"/>
<path d="M61.6616 17.6289H55.7678C56.524 17.6289 57.1371 18.2419 57.1371 18.9982V25.0684C57.1371 25.8246 56.5242 26.4378 55.7678 26.4378H61.6616C62.4178 26.4378 63.0309 25.8246 63.0309 25.0684V18.9982C63.0309 18.2421 62.418 17.6289 61.6616 17.6289Z" fill="#7FBFDB"/>
</svg>
