<svg width="391" height="391" viewBox="0 0 391 391" fill="none" xmlns="http://www.w3.org/2000/svg">
<path d="M311.578 91.6406L309.585 109.969L281.031 372.672H109.969L107.319 348.265L81.4151 109.969L79.4219 91.6406H311.578Z" fill="#E0E0DE"/>
<path d="M311.578 91.6406L309.585 109.969L281.031 372.672H109.969L107.319 348.265C195.5 311.578 262.703 219.938 284.804 91.6406H311.578Z" fill="#D9D9D7"/>
<path d="M61.0938 54.9844H329.906V91.6406H61.0938V54.9844Z" fill="#92563A"/>
<path d="M305.469 54.9844H85.5312L97.75 18.3281H293.25L305.469 54.9844Z" fill="#875036"/>
<path d="M317.688 152.734L299.359 311.578H91.6406L73.3125 152.734H317.688Z" fill="url(#paint0_linear)"/>
<path d="M97.8618 171.612L110.019 170.391L122.298 292.573L110.142 293.795L97.8618 171.612Z" fill="#99B3E9"/>
<path d="M128.348 171.402L140.555 170.791L146.672 293.009L134.465 293.62L128.348 171.402Z" fill="#99B3E9"/>
<path d="M158.844 171.062H171.062V293.25H158.844V171.062Z" fill="#99B3E9"/>
<path d="M244.454 292.915L250.571 170.697L262.778 171.308L256.661 293.526L244.454 292.915Z" fill="#99B3E9"/>
<path d="M219.938 171.062H232.156V293.25H219.938V171.062Z" fill="#99B3E9"/>
<path d="M189.391 171.062H201.609V293.25H189.391V171.062Z" fill="#99B3E9"/>
<path d="M268.727 292.54L280.884 170.357L293.041 171.566L280.884 293.749L268.727 292.54Z" fill="#99B3E9"/>
<path d="M311.578 91.6406L309.585 109.969H81.4151L79.4219 91.6406H311.578Z" fill="#D9D9D7"/>
<path d="M262.703 54.9844H329.906V91.6406H262.703V54.9844Z" fill="#875036"/>
<defs>
<linearGradient id="paint0_linear" x1="82.5" y1="239.5" x2="310" y2="243.5" gradientUnits="userSpaceOnUse">
<stop stop-color="#B5CDFE"/>
<stop offset="1" stop-color="#9EDAFC"/>
</linearGradient>
</defs>
</svg>
