<svg width="107" height="107" viewBox="0 0 107 107" fill="none" xmlns="http://www.w3.org/2000/svg">
<path d="M83.46 0H29.96C25.2327 0 21.4 3.83274 21.4 8.56V10.7H8.56C3.83274 10.7 0 14.5327 0 19.26V29.96C0 34.6873 3.83274 38.52 8.56 38.52H21.4V53.5V81.32V89.88C21.4 94.6094 25.2306 98.44 29.96 98.44H36.38H42.8C42.8 103.167 46.6327 107 51.36 107H77.04C81.7673 107 85.6 103.167 85.6 98.44H92.02H98.44C103.167 98.44 107 94.6073 107 89.88V23.54V21.4L85.6 0H83.46ZM72.76 19.26C72.76 14.5327 68.9273 10.7 64.2 10.7C68.9294 10.7 72.76 14.5306 72.76 19.26ZM72.76 29.96C72.76 34.6894 68.9294 38.52 64.2 38.52C68.9273 38.52 72.76 34.6873 72.76 29.96Z" fill="#E64C3C"/>
<path d="M72.76 19.26V29.9599C72.76 34.6872 68.9273 38.5199 64.2 38.5199H8.56C3.83274 38.5199 0 34.6872 0 29.9599V19.26C0 14.5327 3.83274 10.7 8.56 10.7H64.2C68.9273 10.7 72.76 14.5327 72.76 19.26Z" fill="#FF8C5A"/>
<path d="M77.04 107H51.36C46.6328 107 42.8 103.167 42.8 98.44V77.04C42.8 72.3127 46.6328 68.48 51.36 68.48H77.04C81.7673 68.48 85.6 72.3127 85.6 77.04V98.44C85.6 103.167 81.7673 107 77.04 107Z" fill="#FF6252"/>
<path d="M85.6 0H83.46V14.98C83.46 19.7073 87.2927 23.54 92.02 23.54H107V21.4L85.6 0Z" fill="#FF6252"/>
<path d="M57.78 85.6H53.5V77.04H62.06V81.32H57.78V85.6Z" fill="white"/>
<path d="M62.06 98.44H53.5V89.88H57.78V94.16H62.06V98.44Z" fill="white"/>
<path d="M74.8998 85.6H70.6198V81.32H66.3398V77.04H74.8998V85.6Z" fill="white"/>
<path d="M74.8998 98.44H66.3398V94.16H70.6198V89.88H74.8998V98.44Z" fill="white"/>
<path d="M10.6999 27.8199H6.41992V32.0999H10.6999V27.8199Z" fill="white"/>
<path d="M26.3091 30.4565V23.2233H20.3364V26.7907H22.4742V28.4406C22.2538 28.5476 21.92 28.614 21.5861 28.614C19.1893 28.614 18.0252 27.3043 18.0252 24.6057C18.0252 22.2368 19.3134 20.6425 21.2287 20.6425C22.3137 20.6425 22.8894 20.9677 23.5763 21.5669L23.7454 21.7146L26.1251 19.0289L25.9752 18.8791C24.6977 17.6015 22.9964 16.8975 21.1859 16.8975C16.754 16.8975 13.6553 20.1224 13.6553 24.7384C13.6553 29.3672 16.5764 32.3568 21.0961 32.3568C23.2596 32.3568 25.1642 31.4109 26.2278 30.5228L26.3091 30.4565Z" fill="white"/>
<path d="M32.9367 17.1628H28.6567V32.0872H32.9367V17.1628Z" fill="white"/>
<path d="M35.6887 32.0893H39.9687V26.7906H44.7794V23.1334H39.9687V20.82H45.5819V17.1649H35.6887V32.0893Z" fill="white"/>
</svg>
