<svg width="98" height="98" viewBox="0 0 98 98" fill="none" xmlns="http://www.w3.org/2000/svg">
<rect x="68" y="68" width="30" height="30" rx="3" fill="#F6B17D"/>
<rect x="34" y="68" width="31" height="30" rx="3" fill="#FB5D43"/>
<rect y="68" width="31" height="30" rx="3" fill="#F1E6DC"/>
<rect x="68" y="34" width="30" height="31" rx="3" fill="#CEC1B5"/>
<rect x="34" y="34" width="31" height="31" rx="3" fill="#CEC1B5"/>
<rect y="34" width="31" height="31" rx="3" fill="#F0E2CA"/>
<rect x="68" width="30" height="31" rx="3" fill="#CEC1B5"/>
<rect x="34" width="31" height="31" rx="3" fill="#CEC1B5"/>
<rect width="31" height="31" rx="3" fill="#CEC1B5"/>
<path d="M20.255 88H12.364L14.795 85.478C15.4363 84.8107 15.939 84.2473 16.303 83.788C16.667 83.32 16.9357 82.9257 17.109 82.605C17.291 82.2843 17.4037 82.0243 17.447 81.825C17.4903 81.6257 17.512 81.4567 17.512 81.318C17.512 81.1707 17.486 81.0277 17.434 80.889C17.3907 80.7503 17.3213 80.629 17.226 80.525C17.1307 80.4123 17.0137 80.3257 16.875 80.265C16.745 80.1957 16.589 80.161 16.407 80.161C16.0603 80.161 15.7873 80.2737 15.588 80.499C15.3973 80.7243 15.302 81.006 15.302 81.344C15.302 81.4393 15.315 81.578 15.341 81.76H12.559C12.559 81.188 12.65 80.668 12.832 80.2C13.0227 79.732 13.287 79.329 13.625 78.991C13.963 78.653 14.3617 78.393 14.821 78.211C15.289 78.029 15.8003 77.938 16.355 77.938C16.901 77.938 17.4037 78.0247 17.863 78.198C18.331 78.3713 18.734 78.614 19.072 78.926C19.41 79.238 19.6743 79.6107 19.865 80.044C20.0557 80.4687 20.151 80.9323 20.151 81.435C20.151 81.9723 20.034 82.4707 19.8 82.93C19.5747 83.3807 19.2107 83.8443 18.708 84.321L17.083 85.842H20.255V88Z" fill="#766D65"/>
<path d="M16.914 50.035V46.174L14.665 50.035H16.914ZM19.28 50.035H20.463V51.985H19.28V54H16.914V51.985H12.182V50.347L15.926 44.198H19.28V50.035Z" fill="#766D65"/>
<path d="M47.007 78.198L44.225 81.396H44.277C44.5197 81.2487 44.719 81.162 44.875 81.136C45.031 81.1013 45.1697 81.084 45.291 81.084C45.7677 81.084 46.2053 81.175 46.604 81.357C47.0027 81.539 47.3493 81.7903 47.644 82.111C47.9387 82.423 48.1683 82.7913 48.333 83.216C48.4977 83.6407 48.58 84.0957 48.58 84.581C48.58 85.101 48.4847 85.5863 48.294 86.037C48.1033 86.479 47.826 86.869 47.462 87.207C47.1067 87.5363 46.6733 87.7963 46.162 87.987C45.6507 88.1777 45.0743 88.273 44.433 88.273C43.783 88.273 43.2023 88.1777 42.691 87.987C42.1797 87.7963 41.742 87.5363 41.378 87.207C41.0227 86.8777 40.7497 86.4963 40.559 86.063C40.3683 85.621 40.273 85.153 40.273 84.659C40.273 84.1043 40.3943 83.5063 40.637 82.865C40.8883 82.215 41.2697 81.578 41.781 80.954L44.056 78.198H47.007ZM42.795 84.633C42.795 84.8583 42.8383 85.0707 42.925 85.27C43.0117 85.4607 43.1287 85.6297 43.276 85.777C43.4233 85.9243 43.5923 86.0413 43.783 86.128C43.9823 86.2147 44.1947 86.258 44.42 86.258C44.6453 86.258 44.8533 86.2147 45.044 86.128C45.2433 86.0413 45.4167 85.9243 45.564 85.777C45.7113 85.6297 45.8283 85.4607 45.915 85.27C46.0017 85.0707 46.045 84.8583 46.045 84.633C46.045 84.4077 46.0017 84.1997 45.915 84.009C45.8283 83.8097 45.7113 83.6363 45.564 83.489C45.4167 83.3417 45.2433 83.2247 45.044 83.138C44.8533 83.0513 44.6453 83.008 44.42 83.008C44.1947 83.008 43.9823 83.0513 43.783 83.138C43.5923 83.2247 43.4233 83.3417 43.276 83.489C43.1287 83.6363 43.0117 83.8097 42.925 84.009C42.8383 84.1997 42.795 84.4077 42.795 84.633ZM54.7808 84.035V80.174L52.5318 84.035H54.7808ZM57.1468 84.035H58.3298V85.985H57.1468V88H54.7808V85.985H50.0488V84.347L53.7928 78.198H57.1468V84.035Z" fill="white"/>
<path d="M76.445 80.356H75.015V78.198H78.993V88H76.445V80.356ZM88.7947 78.198L86.0127 81.396H86.0647C86.3074 81.2487 86.5067 81.162 86.6627 81.136C86.8187 81.1013 86.9574 81.084 87.0787 81.084C87.5554 81.084 87.993 81.175 88.3917 81.357C88.7904 81.539 89.137 81.7903 89.4317 82.111C89.7264 82.423 89.956 82.7913 90.1207 83.216C90.2854 83.6407 90.3677 84.0957 90.3677 84.581C90.3677 85.101 90.2724 85.5863 90.0817 86.037C89.891 86.479 89.6137 86.869 89.2497 87.207C88.8944 87.5363 88.461 87.7963 87.9497 87.987C87.4384 88.1777 86.862 88.273 86.2207 88.273C85.5707 88.273 84.99 88.1777 84.4787 87.987C83.9674 87.7963 83.5297 87.5363 83.1657 87.207C82.8104 86.8777 82.5374 86.4963 82.3467 86.063C82.156 85.621 82.0607 85.153 82.0607 84.659C82.0607 84.1043 82.182 83.5063 82.4247 82.865C82.676 82.215 83.0574 81.578 83.5687 80.954L85.8437 78.198H88.7947ZM84.5827 84.633C84.5827 84.8583 84.626 85.0707 84.7127 85.27C84.7994 85.4607 84.9164 85.6297 85.0637 85.777C85.211 85.9243 85.38 86.0413 85.5707 86.128C85.77 86.2147 85.9824 86.258 86.2077 86.258C86.433 86.258 86.641 86.2147 86.8317 86.128C87.031 86.0413 87.2044 85.9243 87.3517 85.777C87.499 85.6297 87.616 85.4607 87.7027 85.27C87.7894 85.0707 87.8327 84.8583 87.8327 84.633C87.8327 84.4077 87.7894 84.1997 87.7027 84.009C87.616 83.8097 87.499 83.6363 87.3517 83.489C87.2044 83.3417 87.031 83.2247 86.8317 83.138C86.641 83.0513 86.433 83.008 86.2077 83.008C85.9824 83.008 85.77 83.0513 85.5707 83.138C85.38 83.2247 85.211 83.3417 85.0637 83.489C84.9164 83.6363 84.7994 83.8097 84.7127 84.009C84.626 84.1997 84.5827 84.4077 84.5827 84.633Z" fill="white"/>
</svg>
