<svg width="104" height="104" viewBox="0 0 104 104" fill="none" xmlns="http://www.w3.org/2000/svg">
<path d="M16.367 83.1415V93.7527C16.367 98.2507 12.6847 101.93 8.1835 101.93C3.68225 101.93 0 98.2507 0 93.7527V83.1415" fill="black"/>
<path d="M45.5781 83.1415V93.7527C45.5781 98.2507 41.8958 101.93 37.3946 101.93C32.8933 101.93 29.2111 98.2507 29.2111 93.7527V83.1415" fill="black"/>
<path d="M74.789 83.1415V93.7527C74.789 98.2507 71.1067 101.93 66.6055 101.93C62.1042 101.93 58.422 98.2507 58.422 93.7527V83.1415" fill="black"/>
<path d="M104 83.1415V93.7527C104 98.2507 100.318 101.93 95.8166 101.93C91.3153 101.93 87.6331 98.2507 87.6331 93.7527V83.1415" fill="black"/>
<path d="M104 86.1348V54.0151C104 25.4443 80.6 2.07031 52 2.07031C23.4 2.07031 0 25.4443 0 54.0151V86.1348H104Z" fill="#E64C3C"/>
<path d="M33.6326 55.5896H33.6212C28.4602 55.5896 24.2352 51.3646 24.2352 46.2036V40.2561C24.2352 35.0951 28.4602 30.8701 33.6212 30.8701H33.6326C38.7936 30.8701 43.0186 35.0951 43.0186 40.2561V46.2036C43.0186 51.3646 38.7936 55.5896 33.6326 55.5896Z" fill="white"/>
<path d="M70.3787 55.5896H70.3673C65.2063 55.5896 60.9813 51.3646 60.9813 46.2036V40.2561C60.9813 35.0951 65.2063 30.8701 70.3673 30.8701H70.3787C75.5397 30.8701 79.7647 35.0951 79.7647 40.2561V46.2036C79.7647 51.3646 75.5397 55.5896 70.3787 55.5896Z" fill="white"/>
<path d="M34.0747 46.6553C36.2142 46.6553 37.9487 44.9209 37.9487 42.7813C37.9487 40.6418 36.2142 38.9073 34.0747 38.9073C31.9351 38.9073 30.2007 40.6418 30.2007 42.7813C30.2007 44.9209 31.9351 46.6553 34.0747 46.6553Z" fill="black"/>
<path d="M70.525 46.6553C72.6646 46.6553 74.399 44.9209 74.399 42.7813C74.399 40.6418 72.6646 38.9073 70.525 38.9073C68.3855 38.9073 66.651 40.6418 66.651 42.7813C66.651 44.9209 68.3855 46.6553 70.525 46.6553Z" fill="black"/>
</svg>
