<svg width="144" height="34" viewBox="0 0 144 34" fill="none" xmlns="http://www.w3.org/2000/svg">
<path d="M0.86 17.61H6.29V20.13C6.87 19.21 7.58 18.51 8.42 18.03C9.26 17.53 10.24 17.28 11.36 17.28C11.5 17.28 11.65 17.28 11.81 17.28C11.99 17.28 12.19 17.3 12.41 17.34V22.53C11.69 22.17 10.91 21.99 10.07 21.99C8.81 21.99 7.86 22.37 7.22 23.13C6.6 23.87 6.29 24.96 6.29 26.4V33H0.86V17.61ZM27.7604 23.07C27.5804 22.31 27.2104 21.7 26.6504 21.24C26.0904 20.78 25.4104 20.55 24.6104 20.55C23.7704 20.55 23.0804 20.77 22.5404 21.21C22.0204 21.65 21.6904 22.27 21.5504 23.07H27.7604ZM21.4004 26.22C21.4004 28.56 22.5004 29.73 24.7004 29.73C25.8804 29.73 26.7704 29.25 27.3704 28.29H32.6204C31.5604 31.81 28.9104 33.57 24.6704 33.57C23.3704 33.57 22.1804 33.38 21.1004 33C20.0204 32.6 19.0904 32.04 18.3104 31.32C17.5504 30.6 16.9604 29.74 16.5404 28.74C16.1204 27.74 15.9104 26.62 15.9104 25.38C15.9104 24.1 16.1104 22.95 16.5104 21.93C16.9104 20.89 17.4804 20.01 18.2204 19.29C18.9604 18.57 19.8504 18.02 20.8904 17.64C21.9504 17.24 23.1404 17.04 24.4604 17.04C25.7604 17.04 26.9304 17.24 27.9704 17.64C29.0104 18.02 29.8904 18.58 30.6104 19.32C31.3304 20.06 31.8804 20.97 32.2604 22.05C32.6404 23.11 32.8304 24.31 32.8304 25.65V26.22H21.4004ZM40.9618 17.61L44.6218 25.5L48.3418 17.61H54.4018L46.3918 33H42.7618L34.8418 17.61H40.9618ZM63.2021 17.61V33H57.7721V17.61H63.2021ZM57.4121 11.7C57.4121 11.28 57.4921 10.89 57.6521 10.53C57.8121 10.15 58.0321 9.82 58.3121 9.54C58.5921 9.26 58.9121 9.04 59.2721 8.88C59.6521 8.72 60.0521 8.64 60.4721 8.64C60.8921 8.64 61.2821 8.72 61.6421 8.88C62.0221 9.04 62.3521 9.26 62.6321 9.54C62.9121 9.82 63.1321 10.15 63.2921 10.53C63.4521 10.89 63.5321 11.28 63.5321 11.7C63.5321 12.12 63.4521 12.52 63.2921 12.9C63.1321 13.26 62.9121 13.58 62.6321 13.86C62.3521 14.14 62.0221 14.36 61.6421 14.52C61.2821 14.68 60.8921 14.76 60.4721 14.76C60.0521 14.76 59.6521 14.68 59.2721 14.52C58.9121 14.36 58.5921 14.14 58.3121 13.86C58.0321 13.58 57.8121 13.26 57.6521 12.9C57.4921 12.52 57.4121 12.12 57.4121 11.7ZM78.6127 21.57C77.6127 21.05 76.6327 20.79 75.6727 20.79C75.1727 20.79 74.7627 20.89 74.4427 21.09C74.1427 21.29 73.9927 21.56 73.9927 21.9C73.9927 22.08 74.0127 22.23 74.0527 22.35C74.1127 22.45 74.2227 22.55 74.3827 22.65C74.5627 22.75 74.8127 22.84 75.1327 22.92C75.4727 23 75.9127 23.1 76.4527 23.22C77.9527 23.52 79.0727 24.06 79.8127 24.84C80.5527 25.6 80.9227 26.58 80.9227 27.78C80.9227 28.68 80.7427 29.49 80.3827 30.21C80.0227 30.93 79.5227 31.54 78.8827 32.04C78.2427 32.52 77.4727 32.89 76.5727 33.15C75.6727 33.43 74.6827 33.57 73.6027 33.57C71.5227 33.57 69.4727 32.98 67.4527 31.8L69.4327 27.96C70.9527 29 72.3927 29.52 73.7527 29.52C74.2527 29.52 74.6627 29.41 74.9827 29.19C75.3027 28.97 75.4627 28.69 75.4627 28.35C75.4627 28.15 75.4327 27.99 75.3727 27.87C75.3327 27.73 75.2327 27.61 75.0727 27.51C74.9127 27.39 74.6727 27.29 74.3527 27.21C74.0527 27.11 73.6527 27.01 73.1527 26.91C71.4727 26.57 70.2927 26.07 69.6127 25.41C68.9527 24.73 68.6227 23.8 68.6227 22.62C68.6227 21.76 68.7827 20.99 69.1027 20.31C69.4227 19.61 69.8827 19.02 70.4827 18.54C71.0827 18.06 71.8027 17.69 72.6427 17.43C73.5027 17.17 74.4527 17.04 75.4927 17.04C77.1927 17.04 78.8427 17.37 80.4427 18.03L78.6127 21.57ZM96.4264 23.07C96.2464 22.31 95.8764 21.7 95.3164 21.24C94.7564 20.78 94.0764 20.55 93.2764 20.55C92.4364 20.55 91.7464 20.77 91.2064 21.21C90.6864 21.65 90.3564 22.27 90.2164 23.07H96.4264ZM90.0664 26.22C90.0664 28.56 91.1664 29.73 93.3664 29.73C94.5464 29.73 95.4364 29.25 96.0364 28.29H101.286C100.226 31.81 97.5764 33.57 93.3364 33.57C92.0364 33.57 90.8464 33.38 89.7664 33C88.6864 32.6 87.7564 32.04 86.9764 31.32C86.2164 30.6 85.6264 29.74 85.2064 28.74C84.7864 27.74 84.5764 26.62 84.5764 25.38C84.5764 24.1 84.7764 22.95 85.1764 21.93C85.5764 20.89 86.1464 20.01 86.8864 19.29C87.6264 18.57 88.5164 18.02 89.5564 17.64C90.6164 17.24 91.8064 17.04 93.1264 17.04C94.4264 17.04 95.5964 17.24 96.6364 17.64C97.6764 18.02 98.5564 18.58 99.2764 19.32C99.9964 20.06 100.546 20.97 100.926 22.05C101.306 23.11 101.496 24.31 101.496 25.65V26.22H90.0664ZM111.14 25.26C111.14 25.76 111.23 26.23 111.41 26.67C111.59 27.09 111.83 27.46 112.13 27.78C112.45 28.1 112.82 28.35 113.24 28.53C113.68 28.71 114.15 28.8 114.65 28.8C115.13 28.8 115.58 28.71 116 28.53C116.44 28.35 116.81 28.1 117.11 27.78C117.43 27.46 117.68 27.09 117.86 26.67C118.06 26.25 118.16 25.8 118.16 25.32C118.16 24.84 118.06 24.39 117.86 23.97C117.68 23.53 117.43 23.15 117.11 22.83C116.81 22.51 116.44 22.26 116 22.08C115.58 21.9 115.13 21.81 114.65 21.81C114.17 21.81 113.71 21.9 113.27 22.08C112.85 22.26 112.48 22.51 112.16 22.83C111.86 23.15 111.61 23.52 111.41 23.94C111.23 24.34 111.14 24.78 111.14 25.26ZM117.98 8.1H123.44V33H117.98V31.29C116.82 32.75 115.25 33.48 113.27 33.48C112.15 33.48 111.12 33.27 110.18 32.85C109.24 32.43 108.42 31.85 107.72 31.11C107.02 30.37 106.47 29.5 106.07 28.5C105.69 27.5 105.5 26.42 105.5 25.26C105.5 24.16 105.68 23.12 106.04 22.14C106.42 21.14 106.95 20.27 107.63 19.53C108.31 18.79 109.12 18.21 110.06 17.79C111.02 17.35 112.07 17.13 113.21 17.13C115.13 17.13 116.72 17.8 117.98 19.14V8.1ZM133.015 25.41V19.56C133.255 19.6 133.475 19.64 133.675 19.68C133.875 19.7 134.065 19.71 134.245 19.71C134.785 19.71 135.295 19.64 135.775 19.5C136.255 19.34 136.665 19.13 137.005 18.87C137.365 18.61 137.645 18.3 137.845 17.94C138.045 17.56 138.145 17.15 138.145 16.71C138.145 16.11 137.945 15.59 137.545 15.15C137.145 14.71 136.605 14.49 135.925 14.49C135.305 14.49 134.805 14.7 134.425 15.12C134.065 15.54 133.885 16.09 133.885 16.77H127.915C127.915 15.75 128.115 14.82 128.515 13.98C128.935 13.12 129.505 12.38 130.225 11.76C130.965 11.12 131.825 10.63 132.805 10.29C133.805 9.93 134.885 9.75 136.045 9.75C137.225 9.75 138.295 9.95 139.255 10.35C140.235 10.73 141.075 11.25 141.775 11.91C142.475 12.57 143.015 13.33 143.395 14.19C143.775 15.05 143.965 15.94 143.965 16.86C143.965 19.86 142.155 21.99 138.535 23.25V25.41H133.015ZM132.415 30.12C132.415 29.64 132.505 29.19 132.685 28.77C132.865 28.33 133.115 27.95 133.435 27.63C133.755 27.31 134.125 27.06 134.545 26.88C134.985 26.7 135.445 26.61 135.925 26.61C136.405 26.61 136.855 26.7 137.275 26.88C137.715 27.06 138.095 27.31 138.415 27.63C138.735 27.95 138.985 28.33 139.165 28.77C139.345 29.19 139.435 29.64 139.435 30.12C139.435 30.6 139.345 31.06 139.165 31.5C138.985 31.92 138.735 32.29 138.415 32.61C138.095 32.93 137.715 33.18 137.275 33.36C136.855 33.54 136.405 33.63 135.925 33.63C135.445 33.63 134.985 33.54 134.545 33.36C134.125 33.18 133.755 32.93 133.435 32.61C133.115 32.29 132.865 31.92 132.685 31.5C132.505 31.06 132.415 30.6 132.415 30.12Z" fill="#0AFFFF"/>
<path d="M0.86 9.61H6.29V12.13C6.87 11.21 7.58 10.51 8.42 10.03C9.26 9.53 10.24 9.28 11.36 9.28C11.5 9.28 11.65 9.28 11.81 9.28C11.99 9.28 12.19 9.3 12.41 9.34V14.53C11.69 14.17 10.91 13.99 10.07 13.99C8.81 13.99 7.86 14.37 7.22 15.13C6.6 15.87 6.29 16.96 6.29 18.4V25H0.86V9.61ZM27.7604 15.07C27.5804 14.31 27.2104 13.7 26.6504 13.24C26.0904 12.78 25.4104 12.55 24.6104 12.55C23.7704 12.55 23.0804 12.77 22.5404 13.21C22.0204 13.65 21.6904 14.27 21.5504 15.07H27.7604ZM21.4004 18.22C21.4004 20.56 22.5004 21.73 24.7004 21.73C25.8804 21.73 26.7704 21.25 27.3704 20.29H32.6204C31.5604 23.81 28.9104 25.57 24.6704 25.57C23.3704 25.57 22.1804 25.38 21.1004 25C20.0204 24.6 19.0904 24.04 18.3104 23.32C17.5504 22.6 16.9604 21.74 16.5404 20.74C16.1204 19.74 15.9104 18.62 15.9104 17.38C15.9104 16.1 16.1104 14.95 16.5104 13.93C16.9104 12.89 17.4804 12.01 18.2204 11.29C18.9604 10.57 19.8504 10.02 20.8904 9.64C21.9504 9.24 23.1404 9.04 24.4604 9.04C25.7604 9.04 26.9304 9.24 27.9704 9.64C29.0104 10.02 29.8904 10.58 30.6104 11.32C31.3304 12.06 31.8804 12.97 32.2604 14.05C32.6404 15.11 32.8304 16.31 32.8304 17.65V18.22H21.4004ZM40.9618 9.61L44.6218 17.5L48.3418 9.61H54.4018L46.3918 25H42.7618L34.8418 9.61H40.9618ZM63.2021 9.61V25H57.7721V9.61H63.2021ZM57.4121 3.7C57.4121 3.28 57.4921 2.89 57.6521 2.53C57.8121 2.15 58.0321 1.82 58.3121 1.54C58.5921 1.26 58.9121 1.04 59.2721 0.879999C59.6521 0.719999 60.0521 0.639999 60.4721 0.639999C60.8921 0.639999 61.2821 0.719999 61.6421 0.879999C62.0221 1.04 62.3521 1.26 62.6321 1.54C62.9121 1.82 63.1321 2.15 63.2921 2.53C63.4521 2.89 63.5321 3.28 63.5321 3.7C63.5321 4.12 63.4521 4.52 63.2921 4.9C63.1321 5.26 62.9121 5.58 62.6321 5.86C62.3521 6.14 62.0221 6.36 61.6421 6.52C61.2821 6.68 60.8921 6.76 60.4721 6.76C60.0521 6.76 59.6521 6.68 59.2721 6.52C58.9121 6.36 58.5921 6.14 58.3121 5.86C58.0321 5.58 57.8121 5.26 57.6521 4.9C57.4921 4.52 57.4121 4.12 57.4121 3.7ZM78.6127 13.57C77.6127 13.05 76.6327 12.79 75.6727 12.79C75.1727 12.79 74.7627 12.89 74.4427 13.09C74.1427 13.29 73.9927 13.56 73.9927 13.9C73.9927 14.08 74.0127 14.23 74.0527 14.35C74.1127 14.45 74.2227 14.55 74.3827 14.65C74.5627 14.75 74.8127 14.84 75.1327 14.92C75.4727 15 75.9127 15.1 76.4527 15.22C77.9527 15.52 79.0727 16.06 79.8127 16.84C80.5527 17.6 80.9227 18.58 80.9227 19.78C80.9227 20.68 80.7427 21.49 80.3827 22.21C80.0227 22.93 79.5227 23.54 78.8827 24.04C78.2427 24.52 77.4727 24.89 76.5727 25.15C75.6727 25.43 74.6827 25.57 73.6027 25.57C71.5227 25.57 69.4727 24.98 67.4527 23.8L69.4327 19.96C70.9527 21 72.3927 21.52 73.7527 21.52C74.2527 21.52 74.6627 21.41 74.9827 21.19C75.3027 20.97 75.4627 20.69 75.4627 20.35C75.4627 20.15 75.4327 19.99 75.3727 19.87C75.3327 19.73 75.2327 19.61 75.0727 19.51C74.9127 19.39 74.6727 19.29 74.3527 19.21C74.0527 19.11 73.6527 19.01 73.1527 18.91C71.4727 18.57 70.2927 18.07 69.6127 17.41C68.9527 16.73 68.6227 15.8 68.6227 14.62C68.6227 13.76 68.7827 12.99 69.1027 12.31C69.4227 11.61 69.8827 11.02 70.4827 10.54C71.0827 10.06 71.8027 9.69 72.6427 9.43C73.5027 9.17 74.4527 9.04 75.4927 9.04C77.1927 9.04 78.8427 9.37 80.4427 10.03L78.6127 13.57ZM96.4264 15.07C96.2464 14.31 95.8764 13.7 95.3164 13.24C94.7564 12.78 94.0764 12.55 93.2764 12.55C92.4364 12.55 91.7464 12.77 91.2064 13.21C90.6864 13.65 90.3564 14.27 90.2164 15.07H96.4264ZM90.0664 18.22C90.0664 20.56 91.1664 21.73 93.3664 21.73C94.5464 21.73 95.4364 21.25 96.0364 20.29H101.286C100.226 23.81 97.5764 25.57 93.3364 25.57C92.0364 25.57 90.8464 25.38 89.7664 25C88.6864 24.6 87.7564 24.04 86.9764 23.32C86.2164 22.6 85.6264 21.74 85.2064 20.74C84.7864 19.74 84.5764 18.62 84.5764 17.38C84.5764 16.1 84.7764 14.95 85.1764 13.93C85.5764 12.89 86.1464 12.01 86.8864 11.29C87.6264 10.57 88.5164 10.02 89.5564 9.64C90.6164 9.24 91.8064 9.04 93.1264 9.04C94.4264 9.04 95.5964 9.24 96.6364 9.64C97.6764 10.02 98.5564 10.58 99.2764 11.32C99.9964 12.06 100.546 12.97 100.926 14.05C101.306 15.11 101.496 16.31 101.496 17.65V18.22H90.0664ZM111.14 17.26C111.14 17.76 111.23 18.23 111.41 18.67C111.59 19.09 111.83 19.46 112.13 19.78C112.45 20.1 112.82 20.35 113.24 20.53C113.68 20.71 114.15 20.8 114.65 20.8C115.13 20.8 115.58 20.71 116 20.53C116.44 20.35 116.81 20.1 117.11 19.78C117.43 19.46 117.68 19.09 117.86 18.67C118.06 18.25 118.16 17.8 118.16 17.32C118.16 16.84 118.06 16.39 117.86 15.97C117.68 15.53 117.43 15.15 117.11 14.83C116.81 14.51 116.44 14.26 116 14.08C115.58 13.9 115.13 13.81 114.65 13.81C114.17 13.81 113.71 13.9 113.27 14.08C112.85 14.26 112.48 14.51 112.16 14.83C111.86 15.15 111.61 15.52 111.41 15.94C111.23 16.34 111.14 16.78 111.14 17.26ZM117.98 0.0999987H123.44V25H117.98V23.29C116.82 24.75 115.25 25.48 113.27 25.48C112.15 25.48 111.12 25.27 110.18 24.85C109.24 24.43 108.42 23.85 107.72 23.11C107.02 22.37 106.47 21.5 106.07 20.5C105.69 19.5 105.5 18.42 105.5 17.26C105.5 16.16 105.68 15.12 106.04 14.14C106.42 13.14 106.95 12.27 107.63 11.53C108.31 10.79 109.12 10.21 110.06 9.79C111.02 9.35 112.07 9.13 113.21 9.13C115.13 9.13 116.72 9.8 117.98 11.14V0.0999987ZM133.015 17.41V11.56C133.255 11.6 133.475 11.64 133.675 11.68C133.875 11.7 134.065 11.71 134.245 11.71C134.785 11.71 135.295 11.64 135.775 11.5C136.255 11.34 136.665 11.13 137.005 10.87C137.365 10.61 137.645 10.3 137.845 9.94C138.045 9.56 138.145 9.15 138.145 8.71C138.145 8.11 137.945 7.59 137.545 7.15C137.145 6.71 136.605 6.49 135.925 6.49C135.305 6.49 134.805 6.7 134.425 7.12C134.065 7.54 133.885 8.09 133.885 8.77H127.915C127.915 7.75 128.115 6.82 128.515 5.98C128.935 5.12 129.505 4.38 130.225 3.76C130.965 3.12 131.825 2.63 132.805 2.29C133.805 1.93 134.885 1.75 136.045 1.75C137.225 1.75 138.295 1.95 139.255 2.35C140.235 2.73 141.075 3.25 141.775 3.91C142.475 4.57 143.015 5.33 143.395 6.19C143.775 7.05 143.965 7.94 143.965 8.86C143.965 11.86 142.155 13.99 138.535 15.25V17.41H133.015ZM132.415 22.12C132.415 21.64 132.505 21.19 132.685 20.77C132.865 20.33 133.115 19.95 133.435 19.63C133.755 19.31 134.125 19.06 134.545 18.88C134.985 18.7 135.445 18.61 135.925 18.61C136.405 18.61 136.855 18.7 137.275 18.88C137.715 19.06 138.095 19.31 138.415 19.63C138.735 19.95 138.985 20.33 139.165 20.77C139.345 21.19 139.435 21.64 139.435 22.12C139.435 22.6 139.345 23.06 139.165 23.5C138.985 23.92 138.735 24.29 138.415 24.61C138.095 24.93 137.715 25.18 137.275 25.36C136.855 25.54 136.405 25.63 135.925 25.63C135.445 25.63 134.985 25.54 134.545 25.36C134.125 25.18 133.755 24.93 133.435 24.61C133.115 24.29 132.865 23.92 132.685 23.5C132.505 23.06 132.415 22.6 132.415 22.12Z" fill="#FFFE5D"/>
<path d="M0.86 11.61H6.29V14.13C6.87 13.21 7.58 12.51 8.42 12.03C9.26 11.53 10.24 11.28 11.36 11.28C11.5 11.28 11.65 11.28 11.81 11.28C11.99 11.28 12.19 11.3 12.41 11.34V16.53C11.69 16.17 10.91 15.99 10.07 15.99C8.81 15.99 7.86 16.37 7.22 17.13C6.6 17.87 6.29 18.96 6.29 20.4V27H0.86V11.61ZM27.7604 17.07C27.5804 16.31 27.2104 15.7 26.6504 15.24C26.0904 14.78 25.4104 14.55 24.6104 14.55C23.7704 14.55 23.0804 14.77 22.5404 15.21C22.0204 15.65 21.6904 16.27 21.5504 17.07H27.7604ZM21.4004 20.22C21.4004 22.56 22.5004 23.73 24.7004 23.73C25.8804 23.73 26.7704 23.25 27.3704 22.29H32.6204C31.5604 25.81 28.9104 27.57 24.6704 27.57C23.3704 27.57 22.1804 27.38 21.1004 27C20.0204 26.6 19.0904 26.04 18.3104 25.32C17.5504 24.6 16.9604 23.74 16.5404 22.74C16.1204 21.74 15.9104 20.62 15.9104 19.38C15.9104 18.1 16.1104 16.95 16.5104 15.93C16.9104 14.89 17.4804 14.01 18.2204 13.29C18.9604 12.57 19.8504 12.02 20.8904 11.64C21.9504 11.24 23.1404 11.04 24.4604 11.04C25.7604 11.04 26.9304 11.24 27.9704 11.64C29.0104 12.02 29.8904 12.58 30.6104 13.32C31.3304 14.06 31.8804 14.97 32.2604 16.05C32.6404 17.11 32.8304 18.31 32.8304 19.65V20.22H21.4004ZM40.9618 11.61L44.6218 19.5L48.3418 11.61H54.4018L46.3918 27H42.7618L34.8418 11.61H40.9618ZM63.2021 11.61V27H57.7721V11.61H63.2021ZM57.4121 5.7C57.4121 5.28 57.4921 4.89 57.6521 4.53C57.8121 4.15 58.0321 3.82 58.3121 3.54C58.5921 3.26 58.9121 3.04 59.2721 2.88C59.6521 2.72 60.0521 2.64 60.4721 2.64C60.8921 2.64 61.2821 2.72 61.6421 2.88C62.0221 3.04 62.3521 3.26 62.6321 3.54C62.9121 3.82 63.1321 4.15 63.2921 4.53C63.4521 4.89 63.5321 5.28 63.5321 5.7C63.5321 6.12 63.4521 6.52 63.2921 6.9C63.1321 7.26 62.9121 7.58 62.6321 7.86C62.3521 8.14 62.0221 8.36 61.6421 8.52C61.2821 8.68 60.8921 8.76 60.4721 8.76C60.0521 8.76 59.6521 8.68 59.2721 8.52C58.9121 8.36 58.5921 8.14 58.3121 7.86C58.0321 7.58 57.8121 7.26 57.6521 6.9C57.4921 6.52 57.4121 6.12 57.4121 5.7ZM78.6127 15.57C77.6127 15.05 76.6327 14.79 75.6727 14.79C75.1727 14.79 74.7627 14.89 74.4427 15.09C74.1427 15.29 73.9927 15.56 73.9927 15.9C73.9927 16.08 74.0127 16.23 74.0527 16.35C74.1127 16.45 74.2227 16.55 74.3827 16.65C74.5627 16.75 74.8127 16.84 75.1327 16.92C75.4727 17 75.9127 17.1 76.4527 17.22C77.9527 17.52 79.0727 18.06 79.8127 18.84C80.5527 19.6 80.9227 20.58 80.9227 21.78C80.9227 22.68 80.7427 23.49 80.3827 24.21C80.0227 24.93 79.5227 25.54 78.8827 26.04C78.2427 26.52 77.4727 26.89 76.5727 27.15C75.6727 27.43 74.6827 27.57 73.6027 27.57C71.5227 27.57 69.4727 26.98 67.4527 25.8L69.4327 21.96C70.9527 23 72.3927 23.52 73.7527 23.52C74.2527 23.52 74.6627 23.41 74.9827 23.19C75.3027 22.97 75.4627 22.69 75.4627 22.35C75.4627 22.15 75.4327 21.99 75.3727 21.87C75.3327 21.73 75.2327 21.61 75.0727 21.51C74.9127 21.39 74.6727 21.29 74.3527 21.21C74.0527 21.11 73.6527 21.01 73.1527 20.91C71.4727 20.57 70.2927 20.07 69.6127 19.41C68.9527 18.73 68.6227 17.8 68.6227 16.62C68.6227 15.76 68.7827 14.99 69.1027 14.31C69.4227 13.61 69.8827 13.02 70.4827 12.54C71.0827 12.06 71.8027 11.69 72.6427 11.43C73.5027 11.17 74.4527 11.04 75.4927 11.04C77.1927 11.04 78.8427 11.37 80.4427 12.03L78.6127 15.57ZM96.4264 17.07C96.2464 16.31 95.8764 15.7 95.3164 15.24C94.7564 14.78 94.0764 14.55 93.2764 14.55C92.4364 14.55 91.7464 14.77 91.2064 15.21C90.6864 15.65 90.3564 16.27 90.2164 17.07H96.4264ZM90.0664 20.22C90.0664 22.56 91.1664 23.73 93.3664 23.73C94.5464 23.73 95.4364 23.25 96.0364 22.29H101.286C100.226 25.81 97.5764 27.57 93.3364 27.57C92.0364 27.57 90.8464 27.38 89.7664 27C88.6864 26.6 87.7564 26.04 86.9764 25.32C86.2164 24.6 85.6264 23.74 85.2064 22.74C84.7864 21.74 84.5764 20.62 84.5764 19.38C84.5764 18.1 84.7764 16.95 85.1764 15.93C85.5764 14.89 86.1464 14.01 86.8864 13.29C87.6264 12.57 88.5164 12.02 89.5564 11.64C90.6164 11.24 91.8064 11.04 93.1264 11.04C94.4264 11.04 95.5964 11.24 96.6364 11.64C97.6764 12.02 98.5564 12.58 99.2764 13.32C99.9964 14.06 100.546 14.97 100.926 16.05C101.306 17.11 101.496 18.31 101.496 19.65V20.22H90.0664ZM111.14 19.26C111.14 19.76 111.23 20.23 111.41 20.67C111.59 21.09 111.83 21.46 112.13 21.78C112.45 22.1 112.82 22.35 113.24 22.53C113.68 22.71 114.15 22.8 114.65 22.8C115.13 22.8 115.58 22.71 116 22.53C116.44 22.35 116.81 22.1 117.11 21.78C117.43 21.46 117.68 21.09 117.86 20.67C118.06 20.25 118.16 19.8 118.16 19.32C118.16 18.84 118.06 18.39 117.86 17.97C117.68 17.53 117.43 17.15 117.11 16.83C116.81 16.51 116.44 16.26 116 16.08C115.58 15.9 115.13 15.81 114.65 15.81C114.17 15.81 113.71 15.9 113.27 16.08C112.85 16.26 112.48 16.51 112.16 16.83C111.86 17.15 111.61 17.52 111.41 17.94C111.23 18.34 111.14 18.78 111.14 19.26ZM117.98 2.1H123.44V27H117.98V25.29C116.82 26.75 115.25 27.48 113.27 27.48C112.15 27.48 111.12 27.27 110.18 26.85C109.24 26.43 108.42 25.85 107.72 25.11C107.02 24.37 106.47 23.5 106.07 22.5C105.69 21.5 105.5 20.42 105.5 19.26C105.5 18.16 105.68 17.12 106.04 16.14C106.42 15.14 106.95 14.27 107.63 13.53C108.31 12.79 109.12 12.21 110.06 11.79C111.02 11.35 112.07 11.13 113.21 11.13C115.13 11.13 116.72 11.8 117.98 13.14V2.1ZM133.015 19.41V13.56C133.255 13.6 133.475 13.64 133.675 13.68C133.875 13.7 134.065 13.71 134.245 13.71C134.785 13.71 135.295 13.64 135.775 13.5C136.255 13.34 136.665 13.13 137.005 12.87C137.365 12.61 137.645 12.3 137.845 11.94C138.045 11.56 138.145 11.15 138.145 10.71C138.145 10.11 137.945 9.59 137.545 9.15C137.145 8.71 136.605 8.49 135.925 8.49C135.305 8.49 134.805 8.7 134.425 9.12C134.065 9.54 133.885 10.09 133.885 10.77H127.915C127.915 9.75 128.115 8.82 128.515 7.98C128.935 7.12 129.505 6.38 130.225 5.76C130.965 5.12 131.825 4.63 132.805 4.29C133.805 3.93 134.885 3.75 136.045 3.75C137.225 3.75 138.295 3.95 139.255 4.35C140.235 4.73 141.075 5.25 141.775 5.91C142.475 6.57 143.015 7.33 143.395 8.19C143.775 9.05 143.965 9.94 143.965 10.86C143.965 13.86 142.155 15.99 138.535 17.25V19.41H133.015ZM132.415 24.12C132.415 23.64 132.505 23.19 132.685 22.77C132.865 22.33 133.115 21.95 133.435 21.63C133.755 21.31 134.125 21.06 134.545 20.88C134.985 20.7 135.445 20.61 135.925 20.61C136.405 20.61 136.855 20.7 137.275 20.88C137.715 21.06 138.095 21.31 138.415 21.63C138.735 21.95 138.985 22.33 139.165 22.77C139.345 23.19 139.435 23.64 139.435 24.12C139.435 24.6 139.345 25.06 139.165 25.5C138.985 25.92 138.735 26.29 138.415 26.61C138.095 26.93 137.715 27.18 137.275 27.36C136.855 27.54 136.405 27.63 135.925 27.63C135.445 27.63 134.985 27.54 134.545 27.36C134.125 27.18 133.755 26.93 133.435 26.61C133.115 26.29 132.865 25.92 132.685 25.5C132.505 25.06 132.415 24.6 132.415 24.12Z" fill="#FF2541"/>
<path d="M0.86 15.61H6.29V18.13C6.87 17.21 7.58 16.51 8.42 16.03C9.26 15.53 10.24 15.28 11.36 15.28C11.5 15.28 11.65 15.28 11.81 15.28C11.99 15.28 12.19 15.3 12.41 15.34V20.53C11.69 20.17 10.91 19.99 10.07 19.99C8.81 19.99 7.86 20.37 7.22 21.13C6.6 21.87 6.29 22.96 6.29 24.4V31H0.86V15.61ZM27.7604 21.07C27.5804 20.31 27.2104 19.7 26.6504 19.24C26.0904 18.78 25.4104 18.55 24.6104 18.55C23.7704 18.55 23.0804 18.77 22.5404 19.21C22.0204 19.65 21.6904 20.27 21.5504 21.07H27.7604ZM21.4004 24.22C21.4004 26.56 22.5004 27.73 24.7004 27.73C25.8804 27.73 26.7704 27.25 27.3704 26.29H32.6204C31.5604 29.81 28.9104 31.57 24.6704 31.57C23.3704 31.57 22.1804 31.38 21.1004 31C20.0204 30.6 19.0904 30.04 18.3104 29.32C17.5504 28.6 16.9604 27.74 16.5404 26.74C16.1204 25.74 15.9104 24.62 15.9104 23.38C15.9104 22.1 16.1104 20.95 16.5104 19.93C16.9104 18.89 17.4804 18.01 18.2204 17.29C18.9604 16.57 19.8504 16.02 20.8904 15.64C21.9504 15.24 23.1404 15.04 24.4604 15.04C25.7604 15.04 26.9304 15.24 27.9704 15.64C29.0104 16.02 29.8904 16.58 30.6104 17.32C31.3304 18.06 31.8804 18.97 32.2604 20.05C32.6404 21.11 32.8304 22.31 32.8304 23.65V24.22H21.4004ZM40.9618 15.61L44.6218 23.5L48.3418 15.61H54.4018L46.3918 31H42.7618L34.8418 15.61H40.9618ZM63.2021 15.61V31H57.7721V15.61H63.2021ZM57.4121 9.7C57.4121 9.28 57.4921 8.89 57.6521 8.53C57.8121 8.15 58.0321 7.82 58.3121 7.54C58.5921 7.26 58.9121 7.04 59.2721 6.88C59.6521 6.72 60.0521 6.64 60.4721 6.64C60.8921 6.64 61.2821 6.72 61.6421 6.88C62.0221 7.04 62.3521 7.26 62.6321 7.54C62.9121 7.82 63.1321 8.15 63.2921 8.53C63.4521 8.89 63.5321 9.28 63.5321 9.7C63.5321 10.12 63.4521 10.52 63.2921 10.9C63.1321 11.26 62.9121 11.58 62.6321 11.86C62.3521 12.14 62.0221 12.36 61.6421 12.52C61.2821 12.68 60.8921 12.76 60.4721 12.76C60.0521 12.76 59.6521 12.68 59.2721 12.52C58.9121 12.36 58.5921 12.14 58.3121 11.86C58.0321 11.58 57.8121 11.26 57.6521 10.9C57.4921 10.52 57.4121 10.12 57.4121 9.7ZM78.6127 19.57C77.6127 19.05 76.6327 18.79 75.6727 18.79C75.1727 18.79 74.7627 18.89 74.4427 19.09C74.1427 19.29 73.9927 19.56 73.9927 19.9C73.9927 20.08 74.0127 20.23 74.0527 20.35C74.1127 20.45 74.2227 20.55 74.3827 20.65C74.5627 20.75 74.8127 20.84 75.1327 20.92C75.4727 21 75.9127 21.1 76.4527 21.22C77.9527 21.52 79.0727 22.06 79.8127 22.84C80.5527 23.6 80.9227 24.58 80.9227 25.78C80.9227 26.68 80.7427 27.49 80.3827 28.21C80.0227 28.93 79.5227 29.54 78.8827 30.04C78.2427 30.52 77.4727 30.89 76.5727 31.15C75.6727 31.43 74.6827 31.57 73.6027 31.57C71.5227 31.57 69.4727 30.98 67.4527 29.8L69.4327 25.96C70.9527 27 72.3927 27.52 73.7527 27.52C74.2527 27.52 74.6627 27.41 74.9827 27.19C75.3027 26.97 75.4627 26.69 75.4627 26.35C75.4627 26.15 75.4327 25.99 75.3727 25.87C75.3327 25.73 75.2327 25.61 75.0727 25.51C74.9127 25.39 74.6727 25.29 74.3527 25.21C74.0527 25.11 73.6527 25.01 73.1527 24.91C71.4727 24.57 70.2927 24.07 69.6127 23.41C68.9527 22.73 68.6227 21.8 68.6227 20.62C68.6227 19.76 68.7827 18.99 69.1027 18.31C69.4227 17.61 69.8827 17.02 70.4827 16.54C71.0827 16.06 71.8027 15.69 72.6427 15.43C73.5027 15.17 74.4527 15.04 75.4927 15.04C77.1927 15.04 78.8427 15.37 80.4427 16.03L78.6127 19.57ZM96.4264 21.07C96.2464 20.31 95.8764 19.7 95.3164 19.24C94.7564 18.78 94.0764 18.55 93.2764 18.55C92.4364 18.55 91.7464 18.77 91.2064 19.21C90.6864 19.65 90.3564 20.27 90.2164 21.07H96.4264ZM90.0664 24.22C90.0664 26.56 91.1664 27.73 93.3664 27.73C94.5464 27.73 95.4364 27.25 96.0364 26.29H101.286C100.226 29.81 97.5764 31.57 93.3364 31.57C92.0364 31.57 90.8464 31.38 89.7664 31C88.6864 30.6 87.7564 30.04 86.9764 29.32C86.2164 28.6 85.6264 27.74 85.2064 26.74C84.7864 25.74 84.5764 24.62 84.5764 23.38C84.5764 22.1 84.7764 20.95 85.1764 19.93C85.5764 18.89 86.1464 18.01 86.8864 17.29C87.6264 16.57 88.5164 16.02 89.5564 15.64C90.6164 15.24 91.8064 15.04 93.1264 15.04C94.4264 15.04 95.5964 15.24 96.6364 15.64C97.6764 16.02 98.5564 16.58 99.2764 17.32C99.9964 18.06 100.546 18.97 100.926 20.05C101.306 21.11 101.496 22.31 101.496 23.65V24.22H90.0664ZM111.14 23.26C111.14 23.76 111.23 24.23 111.41 24.67C111.59 25.09 111.83 25.46 112.13 25.78C112.45 26.1 112.82 26.35 113.24 26.53C113.68 26.71 114.15 26.8 114.65 26.8C115.13 26.8 115.58 26.71 116 26.53C116.44 26.35 116.81 26.1 117.11 25.78C117.43 25.46 117.68 25.09 117.86 24.67C118.06 24.25 118.16 23.8 118.16 23.32C118.16 22.84 118.06 22.39 117.86 21.97C117.68 21.53 117.43 21.15 117.11 20.83C116.81 20.51 116.44 20.26 116 20.08C115.58 19.9 115.13 19.81 114.65 19.81C114.17 19.81 113.71 19.9 113.27 20.08C112.85 20.26 112.48 20.51 112.16 20.83C111.86 21.15 111.61 21.52 111.41 21.94C111.23 22.34 111.14 22.78 111.14 23.26ZM117.98 6.1H123.44V31H117.98V29.29C116.82 30.75 115.25 31.48 113.27 31.48C112.15 31.48 111.12 31.27 110.18 30.85C109.24 30.43 108.42 29.85 107.72 29.11C107.02 28.37 106.47 27.5 106.07 26.5C105.69 25.5 105.5 24.42 105.5 23.26C105.5 22.16 105.68 21.12 106.04 20.14C106.42 19.14 106.95 18.27 107.63 17.53C108.31 16.79 109.12 16.21 110.06 15.79C111.02 15.35 112.07 15.13 113.21 15.13C115.13 15.13 116.72 15.8 117.98 17.14V6.1ZM133.015 23.41V17.56C133.255 17.6 133.475 17.64 133.675 17.68C133.875 17.7 134.065 17.71 134.245 17.71C134.785 17.71 135.295 17.64 135.775 17.5C136.255 17.34 136.665 17.13 137.005 16.87C137.365 16.61 137.645 16.3 137.845 15.94C138.045 15.56 138.145 15.15 138.145 14.71C138.145 14.11 137.945 13.59 137.545 13.15C137.145 12.71 136.605 12.49 135.925 12.49C135.305 12.49 134.805 12.7 134.425 13.12C134.065 13.54 133.885 14.09 133.885 14.77H127.915C127.915 13.75 128.115 12.82 128.515 11.98C128.935 11.12 129.505 10.38 130.225 9.76C130.965 9.12 131.825 8.63 132.805 8.29C133.805 7.93 134.885 7.75 136.045 7.75C137.225 7.75 138.295 7.95 139.255 8.35C140.235 8.73 141.075 9.25 141.775 9.91C142.475 10.57 143.015 11.33 143.395 12.19C143.775 13.05 143.965 13.94 143.965 14.86C143.965 17.86 142.155 19.99 138.535 21.25V23.41H133.015ZM132.415 28.12C132.415 27.64 132.505 27.19 132.685 26.77C132.865 26.33 133.115 25.95 133.435 25.63C133.755 25.31 134.125 25.06 134.545 24.88C134.985 24.7 135.445 24.61 135.925 24.61C136.405 24.61 136.855 24.7 137.275 24.88C137.715 25.06 138.095 25.31 138.415 25.63C138.735 25.95 138.985 26.33 139.165 26.77C139.345 27.19 139.435 27.64 139.435 28.12C139.435 28.6 139.345 29.06 139.165 29.5C138.985 29.92 138.735 30.29 138.415 30.61C138.095 30.93 137.715 31.18 137.275 31.36C136.855 31.54 136.405 31.63 135.925 31.63C135.445 31.63 134.985 31.54 134.545 31.36C134.125 31.18 133.755 30.93 133.435 30.61C133.115 30.29 132.865 29.92 132.685 29.5C132.505 29.06 132.415 28.6 132.415 28.12Z" fill="#003BF9"/>
<path d="M0.86 13.61H6.29V16.13C6.87 15.21 7.58 14.51 8.42 14.03C9.26 13.53 10.24 13.28 11.36 13.28C11.5 13.28 11.65 13.28 11.81 13.28C11.99 13.28 12.19 13.3 12.41 13.34V18.53C11.69 18.17 10.91 17.99 10.07 17.99C8.81 17.99 7.86 18.37 7.22 19.13C6.6 19.87 6.29 20.96 6.29 22.4V29H0.86V13.61ZM27.7604 19.07C27.5804 18.31 27.2104 17.7 26.6504 17.24C26.0904 16.78 25.4104 16.55 24.6104 16.55C23.7704 16.55 23.0804 16.77 22.5404 17.21C22.0204 17.65 21.6904 18.27 21.5504 19.07H27.7604ZM21.4004 22.22C21.4004 24.56 22.5004 25.73 24.7004 25.73C25.8804 25.73 26.7704 25.25 27.3704 24.29H32.6204C31.5604 27.81 28.9104 29.57 24.6704 29.57C23.3704 29.57 22.1804 29.38 21.1004 29C20.0204 28.6 19.0904 28.04 18.3104 27.32C17.5504 26.6 16.9604 25.74 16.5404 24.74C16.1204 23.74 15.9104 22.62 15.9104 21.38C15.9104 20.1 16.1104 18.95 16.5104 17.93C16.9104 16.89 17.4804 16.01 18.2204 15.29C18.9604 14.57 19.8504 14.02 20.8904 13.64C21.9504 13.24 23.1404 13.04 24.4604 13.04C25.7604 13.04 26.9304 13.24 27.9704 13.64C29.0104 14.02 29.8904 14.58 30.6104 15.32C31.3304 16.06 31.8804 16.97 32.2604 18.05C32.6404 19.11 32.8304 20.31 32.8304 21.65V22.22H21.4004ZM40.9618 13.61L44.6218 21.5L48.3418 13.61H54.4018L46.3918 29H42.7618L34.8418 13.61H40.9618ZM63.2021 13.61V29H57.7721V13.61H63.2021ZM57.4121 7.7C57.4121 7.28 57.4921 6.89 57.6521 6.53C57.8121 6.15 58.0321 5.82 58.3121 5.54C58.5921 5.26 58.9121 5.04 59.2721 4.88C59.6521 4.72 60.0521 4.64 60.4721 4.64C60.8921 4.64 61.2821 4.72 61.6421 4.88C62.0221 5.04 62.3521 5.26 62.6321 5.54C62.9121 5.82 63.1321 6.15 63.2921 6.53C63.4521 6.89 63.5321 7.28 63.5321 7.7C63.5321 8.12 63.4521 8.52 63.2921 8.9C63.1321 9.26 62.9121 9.58 62.6321 9.86C62.3521 10.14 62.0221 10.36 61.6421 10.52C61.2821 10.68 60.8921 10.76 60.4721 10.76C60.0521 10.76 59.6521 10.68 59.2721 10.52C58.9121 10.36 58.5921 10.14 58.3121 9.86C58.0321 9.58 57.8121 9.26 57.6521 8.9C57.4921 8.52 57.4121 8.12 57.4121 7.7ZM78.6127 17.57C77.6127 17.05 76.6327 16.79 75.6727 16.79C75.1727 16.79 74.7627 16.89 74.4427 17.09C74.1427 17.29 73.9927 17.56 73.9927 17.9C73.9927 18.08 74.0127 18.23 74.0527 18.35C74.1127 18.45 74.2227 18.55 74.3827 18.65C74.5627 18.75 74.8127 18.84 75.1327 18.92C75.4727 19 75.9127 19.1 76.4527 19.22C77.9527 19.52 79.0727 20.06 79.8127 20.84C80.5527 21.6 80.9227 22.58 80.9227 23.78C80.9227 24.68 80.7427 25.49 80.3827 26.21C80.0227 26.93 79.5227 27.54 78.8827 28.04C78.2427 28.52 77.4727 28.89 76.5727 29.15C75.6727 29.43 74.6827 29.57 73.6027 29.57C71.5227 29.57 69.4727 28.98 67.4527 27.8L69.4327 23.96C70.9527 25 72.3927 25.52 73.7527 25.52C74.2527 25.52 74.6627 25.41 74.9827 25.19C75.3027 24.97 75.4627 24.69 75.4627 24.35C75.4627 24.15 75.4327 23.99 75.3727 23.87C75.3327 23.73 75.2327 23.61 75.0727 23.51C74.9127 23.39 74.6727 23.29 74.3527 23.21C74.0527 23.11 73.6527 23.01 73.1527 22.91C71.4727 22.57 70.2927 22.07 69.6127 21.41C68.9527 20.73 68.6227 19.8 68.6227 18.62C68.6227 17.76 68.7827 16.99 69.1027 16.31C69.4227 15.61 69.8827 15.02 70.4827 14.54C71.0827 14.06 71.8027 13.69 72.6427 13.43C73.5027 13.17 74.4527 13.04 75.4927 13.04C77.1927 13.04 78.8427 13.37 80.4427 14.03L78.6127 17.57ZM96.4264 19.07C96.2464 18.31 95.8764 17.7 95.3164 17.24C94.7564 16.78 94.0764 16.55 93.2764 16.55C92.4364 16.55 91.7464 16.77 91.2064 17.21C90.6864 17.65 90.3564 18.27 90.2164 19.07H96.4264ZM90.0664 22.22C90.0664 24.56 91.1664 25.73 93.3664 25.73C94.5464 25.73 95.4364 25.25 96.0364 24.29H101.286C100.226 27.81 97.5764 29.57 93.3364 29.57C92.0364 29.57 90.8464 29.38 89.7664 29C88.6864 28.6 87.7564 28.04 86.9764 27.32C86.2164 26.6 85.6264 25.74 85.2064 24.74C84.7864 23.74 84.5764 22.62 84.5764 21.38C84.5764 20.1 84.7764 18.95 85.1764 17.93C85.5764 16.89 86.1464 16.01 86.8864 15.29C87.6264 14.57 88.5164 14.02 89.5564 13.64C90.6164 13.24 91.8064 13.04 93.1264 13.04C94.4264 13.04 95.5964 13.24 96.6364 13.64C97.6764 14.02 98.5564 14.58 99.2764 15.32C99.9964 16.06 100.546 16.97 100.926 18.05C101.306 19.11 101.496 20.31 101.496 21.65V22.22H90.0664ZM111.14 21.26C111.14 21.76 111.23 22.23 111.41 22.67C111.59 23.09 111.83 23.46 112.13 23.78C112.45 24.1 112.82 24.35 113.24 24.53C113.68 24.71 114.15 24.8 114.65 24.8C115.13 24.8 115.58 24.71 116 24.53C116.44 24.35 116.81 24.1 117.11 23.78C117.43 23.46 117.68 23.09 117.86 22.67C118.06 22.25 118.16 21.8 118.16 21.32C118.16 20.84 118.06 20.39 117.86 19.97C117.68 19.53 117.43 19.15 117.11 18.83C116.81 18.51 116.44 18.26 116 18.08C115.58 17.9 115.13 17.81 114.65 17.81C114.17 17.81 113.71 17.9 113.27 18.08C112.85 18.26 112.48 18.51 112.16 18.83C111.86 19.15 111.61 19.52 111.41 19.94C111.23 20.34 111.14 20.78 111.14 21.26ZM117.98 4.1H123.44V29H117.98V27.29C116.82 28.75 115.25 29.48 113.27 29.48C112.15 29.48 111.12 29.27 110.18 28.85C109.24 28.43 108.42 27.85 107.72 27.11C107.02 26.37 106.47 25.5 106.07 24.5C105.69 23.5 105.5 22.42 105.5 21.26C105.5 20.16 105.68 19.12 106.04 18.14C106.42 17.14 106.95 16.27 107.63 15.53C108.31 14.79 109.12 14.21 110.06 13.79C111.02 13.35 112.07 13.13 113.21 13.13C115.13 13.13 116.72 13.8 117.98 15.14V4.1ZM133.015 21.41V15.56C133.255 15.6 133.475 15.64 133.675 15.68C133.875 15.7 134.065 15.71 134.245 15.71C134.785 15.71 135.295 15.64 135.775 15.5C136.255 15.34 136.665 15.13 137.005 14.87C137.365 14.61 137.645 14.3 137.845 13.94C138.045 13.56 138.145 13.15 138.145 12.71C138.145 12.11 137.945 11.59 137.545 11.15C137.145 10.71 136.605 10.49 135.925 10.49C135.305 10.49 134.805 10.7 134.425 11.12C134.065 11.54 133.885 12.09 133.885 12.77H127.915C127.915 11.75 128.115 10.82 128.515 9.98C128.935 9.12 129.505 8.38 130.225 7.76C130.965 7.12 131.825 6.63 132.805 6.29C133.805 5.93 134.885 5.75 136.045 5.75C137.225 5.75 138.295 5.95 139.255 6.35C140.235 6.73 141.075 7.25 141.775 7.91C142.475 8.57 143.015 9.33 143.395 10.19C143.775 11.05 143.965 11.94 143.965 12.86C143.965 15.86 142.155 17.99 138.535 19.25V21.41H133.015ZM132.415 26.12C132.415 25.64 132.505 25.19 132.685 24.77C132.865 24.33 133.115 23.95 133.435 23.63C133.755 23.31 134.125 23.06 134.545 22.88C134.985 22.7 135.445 22.61 135.925 22.61C136.405 22.61 136.855 22.7 137.275 22.88C137.715 23.06 138.095 23.31 138.415 23.63C138.735 23.95 138.985 24.33 139.165 24.77C139.345 25.19 139.435 25.64 139.435 26.12C139.435 26.6 139.345 27.06 139.165 27.5C138.985 27.92 138.735 28.29 138.415 28.61C138.095 28.93 137.715 29.18 137.275 29.36C136.855 29.54 136.405 29.63 135.925 29.63C135.445 29.63 134.985 29.54 134.545 29.36C134.125 29.18 133.755 28.93 133.435 28.61C133.115 28.29 132.865 27.92 132.685 27.5C132.505 27.06 132.415 26.6 132.415 26.12Z" fill="#001E32"/>
</svg>
