<svg width="106" height="106" viewBox="0 0 106 106" fill="none" xmlns="http://www.w3.org/2000/svg">
<g clip-path="url(#clip0)">
<path d="M84.1144 33.7728C84.1144 16.5888 70.1841 2.65851 53.0001 2.65851C35.816 2.65851 21.8857 16.5888 21.8857 33.7728C21.8857 36.6835 22.2855 39.5008 23.0329 42.1729C26.6982 55.2761 38.7267 51.285 53.0001 51.285C67.2724 51.285 79.3005 55.2774 82.9666 42.1752C83.7144 39.5024 84.1144 36.6843 84.1144 33.7728Z" fill="#DD5790"/>
<path d="M106 72.2272C106 57.8386 96.233 45.7309 82.9673 42.1727C80.3901 41.4814 76.4955 44.0002 73.7003 44.0002C56.5163 44.0002 48.969 55.0432 48.969 72.227C48.969 80.819 53.5556 85.5487 52.8848 94.228C58.5154 99.8587 66.294 103.341 74.8858 103.341C92.0698 103.342 106 89.4112 106 72.2272Z" fill="#75D78C"/>
<path d="M49.3286 60.1881C51.9053 60.8792 50.9406 62.3464 53.7353 62.3464C56.4114 62.3464 58.2732 64.549 60.7512 63.9137C71.4886 61.1604 79.9866 52.8201 82.9654 42.1748C80.3887 41.4837 77.6807 41.1131 74.886 41.1131C66.352 41.1131 58.6206 44.5492 52.9997 50.1132C49.2201 53.8542 50.8027 54.9204 49.3286 60.1881Z" fill="#F1D333"/>
<path d="M62.2284 72.2273C62.2284 69.3158 61.8284 66.4977 61.0806 63.8249C42.4938 56.9506 44.4455 44.8997 30.1731 44.8997C27.3784 44.8997 25.611 41.4817 23.0343 42.1725C9.76773 45.7304 0 57.8382 0 72.2273C0 89.4111 13.9303 103.342 31.1143 103.342C48.2983 103.342 62.2284 89.4113 62.2284 72.2273Z" fill="#54C9FF"/>
<path d="M43.7715 72.2272C43.7715 80.8772 47.3022 88.7015 52.9999 94.3408C58.6976 88.7015 62.2283 80.8772 62.2283 72.2272C62.2283 69.3157 61.8283 66.4976 61.0801 63.8248C56.8828 60.1879 56.7797 58.1735 52.9999 54.4323C49.2195 58.1739 49.3284 60.1879 44.9188 63.8269C44.1713 66.4991 43.7715 69.3166 43.7715 72.2272Z" fill="#698ED5"/>
<path d="M23.0347 42.1748C25.983 52.7112 34.338 60.9894 44.9199 63.8274C47.4967 64.5184 50.2052 61.8968 53 61.8968C55.7949 61.8968 52.8673 61.4188 55.444 60.7277C53.9699 55.46 56.7799 53.8542 53.0006 50.113C47.3797 44.549 39.6483 41.1129 31.1143 41.1129C28.3193 41.1131 25.6116 41.4837 23.0347 42.1748Z" fill="#D80A61"/>
<path d="M61.0797 63.8253C59.6056 58.5578 56.7794 53.8555 53.0003 50.1142C49.2209 53.8553 46.3948 58.5576 44.9209 63.8253C47.4976 64.5163 50.2056 64.8869 53.0003 64.8869C55.7919 64.8869 58.4968 64.5178 61.0708 63.8282C61.0737 63.8275 61.0766 63.8261 61.0797 63.8253Z" fill="white"/>
</g>
<defs>
<clipPath id="clip0">
<rect width="106" height="106" fill="white"/>
</clipPath>
</defs>
</svg>
