<svg width="137" height="137" viewBox="0 0 137 137" fill="none" xmlns="http://www.w3.org/2000/svg">
<g clip-path="url(#clip0)">
<path d="M102.75 69.5791C102.75 97.9531 79.7482 120.955 51.3755 120.955C23.0015 120.955 0 97.9531 0 69.5791C0 41.2051 23.0015 18.2036 51.3755 18.2036C79.7482 18.2036 102.75 41.2051 102.75 69.5791Z" fill="#83ACFF"/>
<path d="M20.5504 66.1548C19.2896 66.1548 18.2666 65.1318 18.2666 63.871V52.4545C18.2666 51.1937 19.2896 50.1707 20.5504 50.1707C21.8112 50.1707 22.8329 51.1937 22.8329 52.4545V63.871C22.8329 65.1318 21.8112 66.1548 20.5504 66.1548Z" fill="#5F5F5F"/>
<path d="M31.9747 77.0029C30.7139 77.0029 29.6909 75.9799 29.6909 74.7191V43.1062C29.6909 41.8441 30.7139 40.8224 31.9747 40.8224C33.2355 40.8224 34.2586 41.8441 34.2586 43.1062V74.7191C34.2586 75.9799 33.2355 77.0029 31.9747 77.0029Z" fill="#5F5F5F"/>
<path d="M43.3834 93.5541C42.1226 93.5541 41.0996 92.5324 41.0996 91.2703V27.3377C41.0996 26.0768 42.1226 25.0538 43.3834 25.0538C44.6442 25.0538 45.6673 26.0768 45.6673 27.3377V91.2703C45.6673 92.5324 44.6442 93.5541 43.3834 93.5541Z" fill="#5F5F5F"/>
<path d="M54.7999 79.8538C53.5391 79.8538 52.5161 78.8321 52.5161 77.5713V38.7542C52.5161 37.4934 53.5391 36.4703 54.7999 36.4703C56.0607 36.4703 57.0838 37.4934 57.0838 38.7542V77.5713C57.0838 78.8321 56.0607 79.8538 54.7999 79.8538Z" fill="#5F5F5F"/>
<path d="M89.2727 86.8816C88.0119 86.8816 86.9902 85.8599 86.9902 84.5978V33.2262C86.9902 31.9654 88.0119 30.9424 89.2727 30.9424C90.5335 30.9424 91.5566 31.9654 91.5566 33.2262V84.5978C91.5566 85.8599 90.5335 86.8816 89.2727 86.8816Z" fill="#5F5F5F"/>
<path d="M111.884 84.4214C110.623 84.4214 109.6 83.3983 109.6 82.1375V36.4703C109.6 35.2095 110.623 34.1877 111.884 34.1877C113.144 34.1877 114.166 35.2095 114.166 36.4703V82.1375C114.166 83.3983 113.144 84.4214 111.884 84.4214Z" fill="#5F5F5F"/>
<path d="M123.3 73.0036C122.039 73.0036 121.016 71.9819 121.016 70.7211V47.8881C121.016 46.626 122.039 45.6042 123.3 45.6042C124.561 45.6042 125.583 46.626 125.583 47.8881V70.7211C125.583 71.9819 124.561 73.0036 123.3 73.0036Z" fill="#5F5F5F"/>
<path d="M100.467 102.688C99.2051 102.688 98.1833 101.665 98.1833 100.404V18.2037C98.1833 16.9429 99.2051 15.9211 100.467 15.9211C101.728 15.9211 102.75 16.9429 102.75 18.2037V100.404C102.75 101.665 101.728 102.688 100.467 102.688Z" fill="#5F5F5F"/>
<path d="M66.2163 66.1548C64.9555 66.1548 63.9338 65.1318 63.9338 63.871V54.737C63.9338 53.4762 64.9555 52.4545 66.2163 52.4545C67.4772 52.4545 68.5002 53.4762 68.5002 54.737V63.871C68.5002 65.1318 67.4772 66.1548 66.2163 66.1548Z" fill="#5F5F5F"/>
<path d="M134.717 66.1352C133.456 66.1352 132.433 65.1135 132.433 63.8527V53.9727C132.433 52.7119 133.456 51.6888 134.717 51.6888C135.977 51.6888 137 52.7119 137 53.9727V63.8527C137 65.1135 135.977 66.1352 134.717 66.1352Z" fill="#5F5F5F"/>
<path d="M77.4186 70.4885C76.1565 70.4885 75.1348 69.4668 75.1348 68.206V49.6193C75.1348 48.3585 76.1565 47.3354 77.4186 47.3354C78.6794 47.3354 79.7011 48.3585 79.7011 49.6193V68.206C79.7011 69.4668 78.6794 70.4885 77.4186 70.4885Z" fill="#5F5F5F"/>
</g>
<defs>
<clipPath id="clip0">
<rect width="137" height="137" fill="white"/>
</clipPath>
</defs>
</svg>
