<svg width="108" height="108" viewBox="0 0 108 108" fill="none" xmlns="http://www.w3.org/2000/svg">
<g clip-path="url(#clip0)">
<path d="M75.8929 102.893L73.2935 105.474C72.2208 106.545 70.7533 107.124 69.2385 107.076C67.7236 107.027 66.2962 106.355 65.2942 105.218L53.8901 92.6054L38.3491 91.2326L44.042 80.9817L52.2976 72.7078L61.6515 67.9485L63.0061 83.4712V83.4895L73.1654 92.6604L75.6366 94.8936C76.7737 95.8956 77.4461 97.323 77.4946 98.8378C77.5431 100.353 76.9635 101.82 75.8929 102.893Z" fill="#FAC176"/>
<path d="M86.9857 69.6143L87.846 86.6014C87.942 88.1139 87.4086 89.5989 86.3722 90.7046C85.3358 91.8104 83.8884 92.4387 82.3728 92.4407H78.7118C77.1962 92.4387 75.7489 91.8104 74.7124 90.7046C73.676 89.5989 73.1426 88.1139 73.2386 86.6014L74.0989 69.6143L65.5871 59.4916V59.4732C65.5428 58.8591 65.4323 58.2515 65.2576 57.661L80.7711 54.9153L97.0169 57.661L86.9857 69.6143Z" fill="#FAC176"/>
<path d="M108 28.3729V48.5085C108 53.5633 103.902 57.6611 98.8474 57.6611H65.2576C64.8358 56.165 64.035 54.8032 62.9329 53.7072L53.0847 43.8407V28.3729C53.0847 13.2085 65.3779 0.915283 80.5423 0.915283C95.7068 0.915283 108 13.2085 108 28.3729Z" fill="#E64C3C"/>
<path d="M87.8462 86.6014C87.9421 88.1139 87.4088 89.5989 86.3723 90.7047C85.3359 91.8104 83.8885 92.4387 82.3729 92.4407H78.7119C77.1963 92.4387 75.749 91.8104 74.7125 90.7047C73.6761 89.5989 73.1427 88.1139 73.2387 86.6014L74.099 69.6143L74.7031 57.6611H86.3817L86.9858 69.6143L87.8462 86.6014Z" fill="#CF976A"/>
<path d="M65.5872 59.4732V59.4915C65.8021 62.1521 64.8307 64.7717 62.9329 66.6488L61.6516 67.9485L54.1282 75.4536L45.8726 83.7275L38.3492 91.2326L37.0495 92.5322C33.4755 96.1052 27.6819 96.1052 24.1078 92.5322L9.86648 78.2909C3.12372 71.5363 0.368864 61.7668 2.58955 52.4847C4.81023 43.2026 11.6883 35.7376 20.758 32.7661C22.6082 34.7643 25.2534 35.833 27.9724 35.6807C30.6914 35.5285 33.2007 34.1713 34.8163 31.979C40.0825 33.0552 44.9149 35.6592 48.7099 39.4658L53.0848 43.8407L62.9329 53.7071C64.0351 54.8032 64.8358 56.165 65.2577 57.661C65.4324 58.2515 65.5429 58.8591 65.5872 59.4732Z" fill="#393F4A"/>
<path d="M75.8929 102.893L73.2936 105.474C72.2208 106.545 70.7533 107.124 69.2385 107.076C67.7237 107.027 66.2963 106.355 65.2943 105.218L53.8902 92.6055L45.8726 83.7275L54.1282 75.4536L63.0061 83.4712V83.4895L73.1654 92.6604L75.6366 94.8936C76.7737 95.8956 77.4461 97.323 77.4947 98.8379C77.5432 100.353 76.9635 101.82 75.8929 102.893Z" fill="#CF976A"/>
<path d="M60.4068 32.0339C59.3958 32.0339 58.5763 31.2144 58.5763 30.2034C58.6516 21.8692 63.2447 14.2326 70.5716 10.26C71.4759 9.80508 72.5778 10.1694 73.0327 11.0737C73.4877 11.978 73.1234 13.0799 72.2191 13.5348C66.1246 16.8794 62.3086 23.2518 62.2373 30.2034C62.2373 31.2144 61.4178 32.0339 60.4068 32.0339Z" fill="#F09372"/>
<path d="M76.8813 10.0678C77.8923 10.0678 78.7118 9.24827 78.7118 8.23731C78.7118 7.22635 77.8923 6.4068 76.8813 6.4068C75.8703 6.4068 75.0508 7.22635 75.0508 8.23731C75.0508 9.24827 75.8703 10.0678 76.8813 10.0678Z" fill="#F09372"/>
<path d="M36.6101 26.5424C36.6101 31.5972 32.5124 35.695 27.4576 35.695C22.4028 35.695 18.3051 31.5972 18.3051 26.5424C18.3051 21.4876 22.4028 17.3899 27.4576 17.3899C32.5124 17.3899 36.6101 21.4876 36.6101 26.5424Z" fill="white"/>
<path d="M16.4746 17.3898H5.49152C4.48056 17.3898 3.66101 16.5703 3.66101 15.5593C3.66101 14.5484 4.48056 13.7288 5.49152 13.7288H16.4746C17.4855 13.7288 18.3051 14.5484 18.3051 15.5593C18.3051 16.5703 17.4855 17.3898 16.4746 17.3898Z" fill="#A5A5A4"/>
<path d="M10.9831 24.7119H1.83051C0.819546 24.7119 0 23.8923 0 22.8814C0 21.8704 0.819546 21.0508 1.83051 21.0508H10.9831C11.994 21.0508 12.8136 21.8704 12.8136 22.8814C12.8136 23.8923 11.994 24.7119 10.9831 24.7119Z" fill="#A5A5A4"/>
</g>
<defs>
<clipPath id="clip0">
<rect width="108" height="108" fill="white"/>
</clipPath>
</defs>
</svg>
