<svg width="170" height="38" viewBox="0 0 170 38" fill="none" xmlns="http://www.w3.org/2000/svg">
<path d="M14.0412 9.35782H24.6557L23.0119 15.7228C22.7607 16.6095 22.291 17.322 21.603 17.8603C20.9138 18.3986 20.1151 18.6672 19.2077 18.6672H14.2763C13.1491 18.6672 12.155 19 11.294 19.6647C10.4322 20.3297 9.82976 21.2328 9.48551 22.3727C9.26633 23.2277 9.24285 24.0352 9.41506 24.7955C9.58695 25.5548 9.89207 26.2284 10.3312 26.8142C10.7691 27.4005 11.3331 27.8675 12.022 28.2155C12.71 28.5638 13.4616 28.7377 14.2763 28.7377H17.2821C17.8457 28.7377 18.3075 28.9677 18.6676 29.4267C19.0272 29.8862 19.1294 30.4002 18.9729 30.9705L17.0943 38.0002H13.8067C11.5523 38.0002 9.47752 37.5017 7.58371 36.5039C5.68911 35.5064 4.1156 34.1846 2.86366 32.5377C1.61077 30.8918 0.757713 29.0154 0.304025 26.9094C-0.150447 24.8035 -0.0951836 22.6423 0.468405 20.4252L0.656268 19.7127C1.06283 18.1923 1.69703 16.7914 2.55807 15.5089C3.4191 14.2267 4.43669 13.1339 5.61084 12.2314C6.78498 11.3289 8.09219 10.6246 9.53247 10.1173C10.9728 9.61147 12.4752 9.35798 14.0412 9.35798V9.35782ZM19.3953 38L28.6475 2.94532C28.8977 2.05897 29.3673 1.34647 30.0565 0.807817C30.745 0.269167 31.5428 0 32.4514 0H42.2673C44.5221 0 46.5959 0.498433 48.4902 1.49625C50.3842 2.49375 51.9578 3.81662 53.2107 5.4625C54.4627 7.10948 55.3242 8.98605 55.7938 11.0913C56.2635 13.1979 56.1999 15.359 55.6057 17.575L55.4178 18.2875C55.0108 19.8078 54.385 21.2087 53.5392 22.4913C52.6941 23.7734 51.6845 24.8745 50.5104 25.7922C49.3362 26.7113 48.0282 27.4238 46.5887 27.9297C45.148 28.437 43.6455 28.6905 42.08 28.6905H33.5789L35.2697 22.2773C35.5202 21.4223 35.9898 20.726 36.6786 20.1873C37.3675 19.6493 38.1654 19.3795 39.0742 19.3795H41.7979C42.9251 19.3795 43.9353 19.0312 44.8275 18.335C45.7199 17.6387 46.3069 16.7363 46.5887 15.6275C46.807 14.8363 46.8309 14.06 46.6592 13.3C46.4865 12.54 46.1814 11.8676 45.7429 11.2812C45.3045 10.6954 44.7406 10.2204 44.0527 9.85625C43.3636 9.49256 42.6121 9.31 41.7981 9.31H36.5377L29.6808 35.103C29.4293 35.958 28.9597 36.6542 28.2718 37.1922C27.5825 37.7316 26.7997 38 25.9235 38H19.3953ZM77.9606 19.285L78.1019 18.7625C78.1642 18.5095 78.1251 18.2954 77.9845 18.1213C77.8431 17.9479 77.6475 17.86 77.3974 17.86H62.1336C61.4761 17.86 60.8805 17.7172 60.3484 17.4328C59.8158 17.1478 59.3778 16.7753 59.0337 16.3166C58.6888 15.8574 58.454 15.327 58.3292 14.725C58.204 14.1238 58.2191 13.5066 58.3762 12.8725L59.3155 9.2625H79.9804C81.2641 9.2625 82.4383 9.5475 83.5028 10.1172C84.5671 10.6875 85.4519 11.4313 86.1564 12.35C86.8609 13.2691 87.3459 14.3212 87.6123 15.5087C87.8778 16.6962 87.8547 17.9238 87.5422 19.19L83.8313 33.1547C83.4559 34.5797 82.6963 35.7363 81.5539 36.6227C80.4104 37.5096 79.1035 37.9531 77.6323 37.9531L62.3684 37.9048C61.0217 37.9048 59.7853 37.613 58.6581 37.0267C57.5305 36.4409 56.6073 35.6654 55.8867 34.6986C55.1665 33.7339 54.6662 32.6255 54.3842 31.3736C54.1024 30.1237 54.1341 28.849 54.4777 27.5502L54.6662 26.8377C54.8844 25.9513 55.2533 25.1281 55.7693 24.3673C56.2859 23.608 56.8886 22.9591 57.5774 22.4205C58.2663 21.8817 59.0337 21.463 59.8788 21.1611C60.7246 20.8612 61.6168 20.7103 62.5561 20.7103H75.3774L74.4381 24.2728C74.1876 25.1283 73.718 25.8248 73.0292 26.3628C72.3406 26.9015 71.5573 27.1706 70.6809 27.1706H64.9515C64.4188 27.1706 64.0745 27.4403 63.918 27.9781C63.8243 28.3265 63.8867 28.6357 64.1058 28.9044C64.3247 29.1739 64.6068 29.3081 64.9515 29.3081H74.2033C74.5477 29.3081 74.8448 29.2128 75.0963 29.0231C75.3463 28.8331 75.5022 28.5801 75.5659 28.2628L75.6594 27.8831L77.9607 19.2856L77.9606 19.285ZM105.295 9.35782C107.58 9.35782 109.67 9.85625 111.564 10.8541C113.459 11.8516 115.032 13.1736 116.285 14.8203C117.537 16.4673 118.39 18.3512 118.844 20.4728C119.298 22.5945 119.228 24.7636 118.633 26.9797L116.285 35.9102C116.128 36.5443 115.791 37.0502 115.275 37.4298C114.758 37.8103 114.187 38.0002 113.56 38.0002H108.488C107.893 38.0002 107.424 37.7714 107.079 37.3111C106.734 36.8529 106.64 36.3377 106.797 35.7673L109.615 24.9853C109.834 24.1944 109.857 23.4175 109.686 22.6581C109.513 21.8981 109.208 21.2257 108.77 20.6394C108.331 20.0536 107.768 19.5785 107.079 19.2144C106.39 18.8507 105.639 18.6675 104.825 18.6675H99.5649L95.0088 35.91C94.8522 36.5441 94.5157 37.05 93.999 37.4297C93.4824 37.8102 92.8953 38 92.2378 38H87.213C86.6491 38 86.1868 37.7712 85.8271 37.3109C85.4675 36.8527 85.3653 36.3375 85.5219 35.7672L92.4728 9.35782H105.295H105.295ZM132.957 18.4062C132.582 18.7074 132.315 19.0953 132.159 19.5703L130.046 27.6453C129.92 28.0886 129.999 28.5 130.28 28.8797C130.562 29.2602 130.938 29.45 131.408 29.45H150.851L149.348 35.103C149.097 35.958 148.627 36.6542 147.939 37.1922C147.25 37.7316 146.467 38 145.591 38H127.885C126.6 38 125.426 37.7229 124.362 37.1688C123.297 36.6152 122.413 35.8712 121.709 34.9359C121.004 34.0027 120.518 32.9414 120.253 31.7539C119.987 30.5664 120.026 29.3548 120.37 28.1205L123.235 17.3377C123.548 16.1668 124.033 15.0893 124.691 14.108C125.349 13.1263 126.124 12.2871 127.016 11.59C127.908 10.8941 128.91 10.3479 130.021 9.95157C131.132 9.55573 132.283 9.35782 133.473 9.35782H146.014C147.297 9.35782 148.471 9.64218 149.536 10.2125C150.6 10.7828 151.485 11.5267 152.19 12.4453C152.894 13.3636 153.371 14.4245 153.622 15.6273C153.872 16.8315 153.841 18.0498 153.528 19.2848L152.682 22.5148C152.307 23.9403 151.547 25.0882 150.405 25.9591C149.262 26.8299 147.97 27.2653 146.53 27.2653H132.347L133.286 23.7498C133.505 22.8952 133.959 22.1986 134.648 21.6598C135.336 21.1218 136.134 20.8523 137.043 20.8523H142.773C143.305 20.8523 143.649 20.5838 143.806 20.0452L143.994 19.3327C144.088 18.9843 144.025 18.667 143.806 18.3827C143.587 18.0977 143.305 17.9545 142.961 17.9545H134.225C133.756 17.9545 133.333 18.1056 132.957 18.4061L132.957 18.4062ZM150.803 38L160.243 2.1375C160.399 1.5048 160.737 0.990217 161.254 0.59375C161.77 0.19855 162.357 0 163.015 0H168.04C168.634 0 169.113 0.230058 169.473 0.689067C169.831 1.14855 169.935 1.6625 169.778 2.23282L162.733 28.6903C162.387 30.084 161.833 31.35 161.066 32.4903C160.298 33.6297 159.39 34.6041 158.342 35.4109C157.291 36.2188 156.126 36.8527 154.843 37.3109C153.558 37.7712 152.213 38 150.804 38" fill="#FF6C2C"/>
</svg>
