<svg width="118" height="118" viewBox="0 0 118 118" fill="none" xmlns="http://www.w3.org/2000/svg">
<g clip-path="url(#clip0)">
<path d="M112.085 58.0055C110.195 58.0055 108.545 58.9052 107.46 60.2784C101.305 55.8313 87.762 48.4642 75.9912 59.2091C75.9912 59.2091 64.0705 42.7623 72.1163 29.3421C73.087 30.0445 74.2747 30.4706 75.569 30.4706C78.8323 30.4706 81.4879 27.8229 81.4879 24.5517C81.4879 21.2805 78.8323 18.6328 75.569 18.6328C72.3017 18.6328 69.6422 21.2805 69.6422 24.5517C69.6422 25.2146 69.7684 25.842 69.9736 26.4379C61.5253 29.6696 46.945 37.7154 44.7589 55.271C44.7589 55.271 31.2282 37.3524 10.9302 48.9811C9.88455 47.3041 8.04178 46.1756 5.91886 46.1756C2.64766 46.1756 -0.00402832 48.8272 -0.00402832 52.0945C-0.00402832 55.3617 2.64766 58.0134 5.91886 58.0134C9.18611 58.0134 11.8339 55.3617 11.8339 52.0945C11.8339 51.909 11.7944 51.7354 11.7786 51.5539C18.8577 52.1063 30.2062 58.3646 33.3275 91.6093L33.6826 94.3242C33.6826 97.114 44.9602 99.371 58.8658 99.371C72.7792 99.371 84.0528 97.1061 84.0528 94.3242C84.0528 94.3242 84.9564 71.5165 106.194 64.2441C106.355 67.3654 108.908 69.8592 112.077 69.8592C115.352 69.8592 117.996 67.2036 117.996 63.9403C118.012 60.6533 115.36 58.0055 112.085 58.0055Z" fill="#29BCFF"/>
<circle cx="6" cy="52" r="6" fill="#E64C3C"/>
<circle cx="75.5" cy="24.5" r="6.5" fill="#F1D333"/>
<circle cx="111.5" cy="63.5" r="6.5" fill="#F072D4"/>
</g>
<defs>
<clipPath id="clip0">
<rect width="118" height="118" fill="white"/>
</clipPath>
</defs>
</svg>
